<mxfile><diagram id="6hGFLwfOUW9BJmUZLLm1" name="Page-1"><mxGraphModel dx="938" dy="785" grid="0" gridSize="10" guides="1" tooltips="1" connect="1" arrows="1" fold="1" page="1" pageScale="1" pageWidth="827" pageHeight="1169" math="0" shadow="0"><root><mxCell id="0"/><mxCell id="1" parent="0"/><mxCell id="14" value="" style="rounded=0;whiteSpace=wrap;html=1;" vertex="1" connectable="0" parent="1"><mxGeometry x="11" y="10" width="805" height="310" as="geometry"/></mxCell><mxCell id="ymQl5pguGJty--6ULFTS-48" value="" style="rounded=0;whiteSpace=wrap;html=1;" parent="1" vertex="1" connectable="0"><mxGeometry x="31" y="60" width="340" height="240" as="geometry"/></mxCell><mxCell id="ymQl5pguGJty--6ULFTS-56" value="Amphora&lt;br&gt;(secret share storage)" style="rounded=0;whiteSpace=wrap;html=1;" parent="1" vertex="1" connectable="0"><mxGeometry x="51" y="115" width="110" height="60" as="geometry"/></mxCell><mxCell id="2" value="&lt;b&gt;Carbyne Stack instance #1&lt;/b&gt;" style="text;html=1;align=center;verticalAlign=middle;resizable=0;points=[];autosize=1;strokeColor=none;fillColor=none;" vertex="1" parent="1"><mxGeometry x="26" y="60" width="180" height="30" as="geometry"/></mxCell><mxCell id="3" value="Ephemeral&lt;br&gt;(MPC execution)" style="rounded=0;whiteSpace=wrap;html=1;" vertex="1" connectable="0" parent="1"><mxGeometry x="244" y="115" width="110" height="60" as="geometry"/></mxCell><mxCell id="4" value="Castor&lt;br&gt;(correlated randomness storage)" style="rounded=0;whiteSpace=wrap;html=1;" vertex="1" connectable="0" parent="1"><mxGeometry x="51" y="210" width="110" height="60" as="geometry"/></mxCell><mxCell id="5" value="Klyshko&lt;br&gt;(correlated randomness generation)" style="rounded=0;whiteSpace=wrap;html=1;" vertex="1" connectable="0" parent="1"><mxGeometry x="244" y="210" width="110" height="60" as="geometry"/></mxCell><mxCell id="6" value="" style="rounded=0;whiteSpace=wrap;html=1;" vertex="1" connectable="0" parent="1"><mxGeometry x="461" y="60" width="340" height="240" as="geometry"/></mxCell><mxCell id="8" value="&lt;b&gt;Carbyne Stack instance #2&lt;/b&gt;" style="text;html=1;align=center;verticalAlign=middle;resizable=0;points=[];autosize=1;strokeColor=none;fillColor=none;" vertex="1" parent="1"><mxGeometry x="456" y="60" width="180" height="30" as="geometry"/></mxCell><mxCell id="12" value="" style="edgeStyle=segmentEdgeStyle;endArrow=classic;html=1;curved=0;rounded=0;endSize=8;startSize=8;startArrow=classic;startFill=1;" edge="1" parent="1"><mxGeometry width="50" height="50" relative="1" as="geometry"><mxPoint x="371" y="170" as="sourcePoint"/><mxPoint x="461" y="170" as="targetPoint"/></mxGeometry></mxCell><mxCell id="13" value="coordination" style="edgeLabel;html=1;align=center;verticalAlign=middle;resizable=0;points=[];" vertex="1" connectable="0" parent="12"><mxGeometry x="0.0519" y="4" relative="1" as="geometry"><mxPoint x="-1" y="-8" as="offset"/></mxGeometry></mxCell><mxCell id="15" value="&lt;b&gt;Computation Service&lt;/b&gt;" style="text;html=1;align=center;verticalAlign=middle;resizable=0;points=[];autosize=1;strokeColor=none;fillColor=none;" vertex="1" parent="1"><mxGeometry x="6" y="10" width="140" height="30" as="geometry"/></mxCell><mxCell id="16" value="" style="rounded=0;whiteSpace=wrap;html=1;" vertex="1" connectable="0" parent="1"><mxGeometry x="354" y="410" width="120" height="50" as="geometry"/></mxCell><mxCell id="17" value="&lt;b&gt;Client Service&lt;/b&gt;" style="text;html=1;align=center;verticalAlign=middle;resizable=0;points=[];autosize=1;strokeColor=none;fillColor=none;" vertex="1" parent="1"><mxGeometry x="364" y="420" width="100" height="30" as="geometry"/></mxCell><mxCell id="19" value="" style="edgeStyle=elbowEdgeStyle;elbow=vertical;endArrow=classic;html=1;curved=0;rounded=0;endSize=8;startSize=8;" edge="1" parent="1"><mxGeometry width="50" height="50" relative="1" as="geometry"><mxPoint x="420" y="410" as="sourcePoint"/><mxPoint x="630" y="300" as="targetPoint"/><Array as="points"><mxPoint x="530" y="360"/></Array></mxGeometry></mxCell><mxCell id="20" value="" style="edgeStyle=elbowEdgeStyle;elbow=vertical;endArrow=classic;html=1;curved=0;rounded=0;endSize=8;startSize=8;" edge="1" parent="1"><mxGeometry width="50" height="50" relative="1" as="geometry"><mxPoint x="420" y="400" as="sourcePoint"/><mxPoint x="180" y="300" as="targetPoint"/><Array as="points"><mxPoint x="300" y="360"/></Array></mxGeometry></mxCell><mxCell id="35" value="upload data and/or program, download results" style="edgeLabel;html=1;align=center;verticalAlign=middle;resizable=0;points=[];" vertex="1" connectable="0" parent="20"><mxGeometry x="-0.7284" y="1" relative="1" as="geometry"><mxPoint x="6" y="-11" as="offset"/></mxGeometry></mxCell><mxCell id="21" value="read inputs" style="edgeStyle=segmentEdgeStyle;endArrow=classic;html=1;curved=0;rounded=0;endSize=8;startSize=8;" edge="1" parent="1"><mxGeometry x="-0.15" y="10" width="50" height="50" relative="1" as="geometry"><mxPoint x="160" y="136" as="sourcePoint"/><mxPoint x="240" y="136" as="targetPoint"/><mxPoint as="offset"/></mxGeometry></mxCell><mxCell id="22" value="store results" style="edgeStyle=segmentEdgeStyle;endArrow=classic;html=1;curved=0;rounded=0;endSize=8;startSize=8;" edge="1" parent="1"><mxGeometry x="-0.1429" y="10" width="50" height="50" relative="1" as="geometry"><mxPoint x="240" y="155" as="sourcePoint"/><mxPoint x="160" y="155" as="targetPoint"/><mxPoint as="offset"/></mxGeometry></mxCell><mxCell id="23" value="store tuples" style="edgeStyle=segmentEdgeStyle;endArrow=classic;html=1;curved=0;rounded=0;endSize=8;startSize=8;" edge="1" parent="1"><mxGeometry x="-0.1429" y="10" width="50" height="50" relative="1" as="geometry"><mxPoint x="242" y="247" as="sourcePoint"/><mxPoint x="162" y="247" as="targetPoint"/><mxPoint as="offset"/></mxGeometry></mxCell><mxCell id="24" value="fetch tuples" style="edgeStyle=segmentEdgeStyle;endArrow=classic;html=1;curved=0;rounded=0;endSize=8;startSize=8;" edge="1" parent="1"><mxGeometry x="-0.7333" y="10" width="50" height="50" relative="1" as="geometry"><mxPoint x="147" y="210" as="sourcePoint"/><mxPoint x="267" y="180" as="targetPoint"/><mxPoint as="offset"/><Array as="points"><mxPoint x="147" y="200"/><mxPoint x="267" y="200"/></Array></mxGeometry></mxCell><mxCell id="25" value="" style="edgeStyle=segmentEdgeStyle;endArrow=classic;html=1;curved=0;rounded=0;endSize=8;startSize=8;" edge="1" parent="1"><mxGeometry x="-0.1467" y="10" width="50" height="50" relative="1" as="geometry"><mxPoint x="150" y="210" as="sourcePoint"/><mxPoint x="110" y="180" as="targetPoint"/><mxPoint as="offset"/><Array as="points"><mxPoint x="140" y="210"/><mxPoint x="140" y="200"/><mxPoint x="110" y="200"/></Array></mxGeometry></mxCell><mxCell id="26" value="Amphora&lt;br&gt;(secret share storage)" style="rounded=0;whiteSpace=wrap;html=1;" vertex="1" connectable="0" parent="1"><mxGeometry x="479.5" y="115" width="110" height="60" as="geometry"/></mxCell><mxCell id="27" value="Ephemeral&lt;br&gt;(MPC execution)" style="rounded=0;whiteSpace=wrap;html=1;" vertex="1" connectable="0" parent="1"><mxGeometry x="672.5" y="115" width="110" height="60" as="geometry"/></mxCell><mxCell id="28" value="Castor&lt;br&gt;(correlated randomness storage)" style="rounded=0;whiteSpace=wrap;html=1;" vertex="1" connectable="0" parent="1"><mxGeometry x="479.5" y="210" width="110" height="60" as="geometry"/></mxCell><mxCell id="29" value="Klyshko&lt;br&gt;(correlated randomness generation)" style="rounded=0;whiteSpace=wrap;html=1;" vertex="1" connectable="0" parent="1"><mxGeometry x="672.5" y="210" width="110" height="60" as="geometry"/></mxCell><mxCell id="30" value="read inputs" style="edgeStyle=segmentEdgeStyle;endArrow=classic;html=1;curved=0;rounded=0;endSize=8;startSize=8;" edge="1" parent="1"><mxGeometry x="-0.15" y="10" width="50" height="50" relative="1" as="geometry"><mxPoint x="588.5" y="136" as="sourcePoint"/><mxPoint x="668.5" y="136" as="targetPoint"/><mxPoint as="offset"/></mxGeometry></mxCell><mxCell id="31" value="store results" style="edgeStyle=segmentEdgeStyle;endArrow=classic;html=1;curved=0;rounded=0;endSize=8;startSize=8;" edge="1" parent="1"><mxGeometry x="-0.1429" y="10" width="50" height="50" relative="1" as="geometry"><mxPoint x="668.5" y="155" as="sourcePoint"/><mxPoint x="588.5" y="155" as="targetPoint"/><mxPoint as="offset"/></mxGeometry></mxCell><mxCell id="32" value="store tuples" style="edgeStyle=segmentEdgeStyle;endArrow=classic;html=1;curved=0;rounded=0;endSize=8;startSize=8;" edge="1" parent="1"><mxGeometry x="-0.1429" y="10" width="50" height="50" relative="1" as="geometry"><mxPoint x="670.5" y="247" as="sourcePoint"/><mxPoint x="590.5" y="247" as="targetPoint"/><mxPoint as="offset"/></mxGeometry></mxCell><mxCell id="33" value="fetch tuples" style="edgeStyle=segmentEdgeStyle;endArrow=classic;html=1;curved=0;rounded=0;endSize=8;startSize=8;" edge="1" parent="1"><mxGeometry x="-0.7333" y="10" width="50" height="50" relative="1" as="geometry"><mxPoint x="575.5" y="210" as="sourcePoint"/><mxPoint x="695.5" y="180" as="targetPoint"/><mxPoint as="offset"/><Array as="points"><mxPoint x="575.5" y="200"/><mxPoint x="695.5" y="200"/></Array></mxGeometry></mxCell><mxCell id="34" value="" style="edgeStyle=segmentEdgeStyle;endArrow=classic;html=1;curved=0;rounded=0;endSize=8;startSize=8;" edge="1" parent="1"><mxGeometry x="-0.1467" y="10" width="50" height="50" relative="1" as="geometry"><mxPoint x="578.5" y="210" as="sourcePoint"/><mxPoint x="538.5" y="180" as="targetPoint"/><mxPoint as="offset"/><Array as="points"><mxPoint x="568.5" y="210"/><mxPoint x="568.5" y="200"/><mxPoint x="538.5" y="200"/></Array></mxGeometry></mxCell></root></mxGraphModel></diagram></mxfile>